<svg width="21" height="22" viewBox="0 0 21 22" fill="none" xmlns="http://www.w3.org/2000/svg">
<path d="M9.36833 0.417168C9.68449 0.147831 10.0855 0 10.5 0C10.9145 0 11.3155 0.147831 11.6317 0.417168L20.3817 7.87679C20.5754 8.04185 20.7311 8.24731 20.8379 8.47891C20.9446 8.71051 21 8.9627 21 9.21795V20.2415C21 20.7079 20.8156 21.1552 20.4874 21.4849C20.1592 21.8147 19.7141 22 19.25 22H12.5417C12.3096 22 12.087 21.9074 11.9229 21.7425C11.7589 21.5776 11.6667 21.3539 11.6667 21.1207V13.7936H9.33333V21.1207C9.33333 21.3539 9.24115 21.5776 9.07705 21.7425C8.91296 21.9074 8.6904 22 8.45833 22H1.75C1.28587 22 0.840752 21.8147 0.512563 21.4849C0.184375 21.1552 0 20.7079 0 20.2415V9.21795C0 8.70212 0.226333 8.2109 0.618333 7.87679L9.36833 0.417168ZM10.5 1.75833L1.75 9.21795V20.2415H7.58333V12.9143C7.58333 12.6811 7.67552 12.4575 7.83961 12.2926C8.00371 12.1277 8.22627 12.0351 8.45833 12.0351H12.5417C12.7737 12.0351 12.9963 12.1277 13.1604 12.2926C13.3245 12.4575 13.4167 12.6811 13.4167 12.9143V20.2415H19.25V9.21795L10.5 1.75833Z" fill="#707070"/>
</svg>
