<svg width="26" height="22" viewBox="0 0 26 22" fill="none" xmlns="http://www.w3.org/2000/svg">
<path d="M9.15869 16.5615H22.3053C22.7441 16.5615 23.1272 16.2035 23.1272 15.7222C23.1272 15.241 22.7441 14.8829 22.3053 14.8829H9.34998C8.70784 14.8829 8.31371 14.4351 8.2123 13.7528L8.03205 12.5779H22.3274C23.9722 12.5779 24.8171 11.5705 25.0536 9.97063L25.9548 4.05099C25.9787 3.91042 25.9938 3.76851 26 3.62608C26 3.08897 25.5943 2.71944 24.9748 2.71944H6.57907L6.3647 1.29861C6.25223 0.436848 5.93692 0 4.78818 0H0.833438C0.383074 0 0 0.392447 0 0.840275C0 1.29861 0.383074 1.69058 0.833919 1.69058H4.64111L6.44352 13.9767C6.68048 15.5656 7.52497 16.5615 9.15869 16.5615ZM24.0846 4.40906L23.2858 9.76916C23.1954 10.4629 22.8239 10.8883 22.1592 10.8883L7.785 10.8992L6.82708 4.40906H24.0846ZM10.0488 21.9999C10.2891 22.0019 10.5273 21.9564 10.7496 21.866C10.9719 21.7756 11.1739 21.6421 11.3437 21.4734C11.5136 21.3047 11.648 21.104 11.739 20.8832C11.83 20.6624 11.8758 20.4258 11.8738 20.1871C11.8749 19.9488 11.8284 19.7126 11.737 19.4922C11.6456 19.2718 11.5113 19.0716 11.3416 18.903C11.1719 18.7345 10.9703 18.601 10.7484 18.5103C10.5266 18.4195 10.2888 18.3733 10.0488 18.3743C9.02411 18.3743 8.21278 19.1802 8.21278 20.1871C8.21278 21.2055 9.02411 21.9999 10.0488 21.9999ZM20.5817 21.9999C21.6069 21.9999 22.4178 21.2055 22.4178 20.1871C22.4178 19.1798 21.6069 18.3743 20.5817 18.3743C19.568 18.3743 18.7456 19.1802 18.7456 20.1871C18.7456 21.2055 19.568 21.9999 20.5817 21.9999Z" fill="#707070"/>
</svg>
