<svg width="27" height="27" viewBox="0 0 27 27" fill="none" xmlns="http://www.w3.org/2000/svg">
<path d="M23.625 13.5C23.6283 15.5101 23.0305 17.4753 21.9083 19.143C20.9828 20.5233 19.7315 21.6543 18.2649 22.436C16.7984 23.2178 15.1619 23.6261 13.5 23.625C11.8381 23.6261 10.2016 23.2178 8.73507 22.436C7.26855 21.6543 6.01723 20.5233 5.09175 19.143C4.21057 17.8294 3.64939 16.3277 3.45319 14.7582C3.257 13.1887 3.43124 11.5951 3.96197 10.105C4.49269 8.61501 5.36512 7.27005 6.50933 6.17797C7.65353 5.08589 9.03768 4.27707 10.5508 3.81635C12.064 3.35563 13.664 3.25583 15.2227 3.52494C16.7813 3.79405 18.2552 4.42459 19.5263 5.36602C20.7973 6.30744 21.8302 7.53356 22.5419 8.94609C23.2537 10.3586 23.6246 11.9182 23.625 13.5Z" stroke="black" stroke-width="2"/>
<path d="M14.9062 10.125C14.9062 10.9012 14.2762 11.5312 13.5 11.5312V13.2188C14.3205 13.2188 15.1074 12.8928 15.6876 12.3126C16.2678 11.7324 16.5937 10.9455 16.5937 10.125H14.9062ZM13.5 11.5312C12.7237 11.5312 12.0937 10.9012 12.0937 10.125H10.4062C10.4062 10.9455 10.7322 11.7324 11.3124 12.3126C11.8926 12.8928 12.6795 13.2188 13.5 13.2188V11.5312ZM12.0937 10.125C12.0937 9.34875 12.7237 8.71875 13.5 8.71875V7.03125C12.6795 7.03125 11.8926 7.3572 11.3124 7.93739C10.7322 8.51758 10.4062 9.30449 10.4062 10.125H12.0937ZM13.5 8.71875C14.2762 8.71875 14.9062 9.34875 14.9062 10.125H16.5937C16.5937 9.30449 16.2678 8.51758 15.6876 7.93739C15.1074 7.3572 14.3205 7.03125 13.5 7.03125V8.71875ZM5.81175 20.088L5.00287 19.8472L4.87125 20.2882L5.17162 20.637L5.81175 20.088ZM21.1882 20.088L21.8295 20.6381L22.1287 20.2894L21.9971 19.8472L21.1882 20.088ZM10.125 17.7188H16.875V16.0312H10.125V17.7188ZM10.125 16.0312C8.97423 16.0313 7.8542 16.4027 6.93138 17.0902C6.00856 17.7777 5.33221 18.7446 5.00287 19.8472L6.62062 20.3287C6.84622 19.5746 7.30905 18.9133 7.94036 18.4431C8.57168 17.9729 9.33782 17.7189 10.125 17.7188V16.0312ZM13.5 22.7812C12.1606 22.7828 10.8368 22.4937 9.61997 21.9339C8.40314 21.3742 7.32224 20.5571 6.45187 19.539L5.17162 20.637C6.20039 21.8396 7.47769 22.8059 8.9155 23.4673C10.3533 24.1286 11.9174 24.4703 13.5 24.4688V22.7812ZM16.875 17.7188C18.5287 17.7188 19.9294 18.819 20.3794 20.3287L21.9971 19.8472C21.6678 18.7446 20.9914 17.7777 20.0686 17.0902C19.1458 16.4027 18.0258 16.0313 16.875 16.0312V17.7188ZM20.5481 19.539C19.6777 20.5571 18.5969 21.3742 17.38 21.9339C16.1632 22.4937 14.8394 22.7828 13.5 22.7812V24.4688C15.0826 24.4703 16.6467 24.1286 18.0845 23.4673C19.5223 22.8059 20.8007 21.8407 21.8295 20.6381L20.5481 19.539Z" fill="black"/>
</svg>
