<svg width="46" height="46" viewBox="0 0 46 46" fill="none" xmlns="http://www.w3.org/2000/svg">
<path d="M16.2917 16.2188H29.7083V12.6788C29.7083 12.335 29.5978 12.0526 29.3767 11.8316C29.1557 11.6105 28.8733 11.5 28.5296 11.5H17.4704C17.1267 11.5 16.8443 11.6105 16.6233 11.8316C16.4022 12.0526 16.2917 12.3357 16.2917 12.6807V16.2188ZM5.75 36.4167V27.2742H12.2379V29.1908H14.1546V27.2742H31.8454V29.1908H33.7621V27.2742H40.25V36.4167H5.75ZM5.75 25.8022V19.3142C5.75 18.462 6.05347 17.733 6.66042 17.1273C7.26736 16.5217 7.99569 16.2182 8.84542 16.2169H14.375V12.6788C14.375 11.8278 14.6785 11.0994 15.2854 10.4938C15.8924 9.88808 16.6207 9.58461 17.4704 9.58333H28.5296C29.3806 9.58333 30.1089 9.88681 30.7146 10.4938C31.3202 11.1007 31.6237 11.829 31.625 12.6788V16.2188H37.1546C38.0056 16.2188 38.7339 16.5217 39.3396 17.1273C39.9452 17.733 40.2487 18.462 40.25 19.3142V25.8022H33.764V23.4408H31.8473V25.7983H14.1546V23.4408H12.2379V25.7983L5.75 25.8022Z" fill="#319F43"/>
</svg>
