<svg width="50" height="50" viewBox="0 0 50 50" fill="none" xmlns="http://www.w3.org/2000/svg">
<path d="M12.5 21.875C11.6712 21.875 10.8763 22.2042 10.2903 22.7903C9.70424 23.3763 9.375 24.1712 9.375 25C9.375 25.8288 9.70424 26.6237 10.2903 27.2097C10.8763 27.7958 11.6712 28.125 12.5 28.125C13.3288 28.125 14.1237 27.7958 14.7097 27.2097C15.2958 26.6237 15.625 25.8288 15.625 25C15.625 24.1712 15.2958 23.3763 14.7097 22.7903C14.1237 22.2042 13.3288 21.875 12.5 21.875ZM21.875 25C21.875 24.1712 22.2042 23.3763 22.7903 22.7903C23.3763 22.2042 24.1712 21.875 25 21.875C25.8288 21.875 26.6237 22.2042 27.2097 22.7903C27.7958 23.3763 28.125 24.1712 28.125 25C28.125 25.8288 27.7958 26.6237 27.2097 27.2097C26.6237 27.7958 25.8288 28.125 25 28.125C24.1712 28.125 23.3763 27.7958 22.7903 27.2097C22.2042 26.6237 21.875 25.8288 21.875 25ZM34.375 25C34.375 24.1712 34.7042 23.3763 35.2903 22.7903C35.8763 22.2042 36.6712 21.875 37.5 21.875C38.3288 21.875 39.1237 22.2042 39.7097 22.7903C40.2958 23.3763 40.625 24.1712 40.625 25C40.625 25.8288 40.2958 26.6237 39.7097 27.2097C39.1237 27.7958 38.3288 28.125 37.5 28.125C36.6712 28.125 35.8763 27.7958 35.2903 27.2097C34.7042 26.6237 34.375 25.8288 34.375 25Z" fill="#319F43"/>
</svg>
