<svg width="37" height="37" viewBox="0 0 37 37" fill="none" xmlns="http://www.w3.org/2000/svg">
<path d="M27.8425 35.4583H30.4016C31.6966 35.4583 32.7604 34.4562 32.9145 33.1921L35.4583 7.78542H27.75V1.54167H24.7129V7.78542H17.0508L17.5133 11.3929C20.1495 12.1175 22.6162 13.4279 24.0962 14.8771C26.3162 17.0662 27.8425 19.3325 27.8425 23.0325V35.4583ZM1.54163 33.9167V32.375H24.7129V33.9167C24.7129 34.7492 24.0191 35.4583 23.125 35.4583H3.08329C2.23538 35.4583 1.54163 34.7492 1.54163 33.9167ZM24.7129 23.125C24.7129 10.7917 1.54163 10.7917 1.54163 23.125H24.7129ZM1.54163 26.2083H24.6666V29.2917H1.54163V26.2083Z" fill="#319F43"/>
</svg>
