<svg width="32" height="32" viewBox="0 0 32 32" fill="none" xmlns="http://www.w3.org/2000/svg">
<g clip-path="url(#clip0_18_372)">
<path fill-rule="evenodd" clip-rule="evenodd" d="M3.92689 3.64343C3.86756 3.64313 3.80876 3.65455 3.75387 3.67705C3.69897 3.69954 3.64906 3.73266 3.60701 3.77451C3.56495 3.81635 3.53158 3.86609 3.50881 3.92087C3.48604 3.97565 3.47431 4.03439 3.47431 4.09372V23.5703H23.8606V18.1646C23.8606 17.7099 24.0412 17.2739 24.3627 16.9524C24.6842 16.6309 25.1202 16.4503 25.5749 16.4503C26.0295 16.4503 26.4656 16.6309 26.7871 16.9524C27.1086 17.2739 27.2892 17.7099 27.2892 18.1646V27.9063C27.2892 30.048 25.552 31.7851 23.4103 31.7851H3.92231C1.7806 31.7851 0.043457 30.048 0.043457 27.9063V4.09372C0.0446685 3.06456 0.454349 2.07797 1.1825 1.35067C1.91065 0.623376 2.89773 0.214858 3.92689 0.214859H17.9977C18.4524 0.214859 18.8884 0.395471 19.2099 0.716962C19.5314 1.03845 19.712 1.47449 19.712 1.92914C19.712 2.3838 19.5314 2.81984 19.2099 3.14133C18.8884 3.46282 18.4524 3.64343 17.9977 3.64343H3.92689ZM8.25603 6.87314C8.06843 6.87314 7.88266 6.9101 7.70934 6.98189C7.53602 7.05368 7.37853 7.15891 7.24588 7.29156C7.11322 7.42422 7.00799 7.5817 6.9362 7.75503C6.86441 7.92835 6.82746 8.11411 6.82746 8.30172C6.82746 8.48932 6.86441 8.67509 6.9362 8.84841C7.00799 9.02173 7.11322 9.17921 7.24588 9.31187C7.37853 9.44452 7.53602 9.54975 7.70934 9.62154C7.88266 9.69334 8.06843 9.73029 8.25603 9.73029H12.5852C12.9641 9.73029 13.3274 9.57978 13.5953 9.31187C13.8632 9.04396 14.0137 8.6806 14.0137 8.30172C14.0137 7.92284 13.8632 7.55947 13.5953 7.29156C13.3274 7.02365 12.9641 6.87314 12.5852 6.87314H8.25603ZM6.82746 14.8571C6.82746 14.0686 7.46746 13.4286 8.25603 13.4286H10.4206C10.7995 13.4286 11.1628 13.5791 11.4308 13.847C11.6987 14.1149 11.8492 14.4783 11.8492 14.8571C11.8492 15.236 11.6987 15.5994 11.4308 15.8673C11.1628 16.1352 10.7995 16.2857 10.4206 16.2857H8.25603C7.87715 16.2857 7.51379 16.1352 7.24588 15.8673C6.97797 15.5994 6.82746 15.236 6.82746 14.8571ZM21.3006 17.2206C21.5313 17.1788 21.7436 17.0671 21.9086 16.9006L31.2777 7.488C31.492 7.27552 31.662 7.02271 31.7781 6.74418C31.8941 6.46564 31.9539 6.16689 31.9539 5.86514C31.9539 5.5634 31.8941 5.26465 31.7781 4.98611C31.662 4.70758 31.492 4.45477 31.2777 4.24229L28.8549 1.81943C28.6424 1.60519 28.3896 1.43515 28.1111 1.31911C27.8325 1.20306 27.5338 1.14332 27.232 1.14332C26.9303 1.14332 26.6315 1.20306 26.353 1.31911C26.0745 1.43515 25.8217 1.60519 25.6092 1.81943L16.2012 11.1817C16.0317 11.351 15.9198 11.5693 15.8812 11.8057L15.0583 16.7931C15.0286 16.9739 15.0428 17.1591 15.0996 17.3332C15.1565 17.5073 15.2543 17.6652 15.3849 17.7936C15.5156 17.922 15.6751 18.0171 15.8502 18.0709C16.0253 18.1247 16.2107 18.1357 16.3909 18.1029L21.3006 17.2206Z" fill="#319F43"/>
</g>
<defs>
<clipPath id="clip0_18_372">
<rect width="32" height="32" fill="white"/>
</clipPath>
</defs>
</svg>
