<svg width="21" height="19" viewBox="0 0 21 19" fill="none" xmlns="http://www.w3.org/2000/svg">
<path d="M9.25305 1.81802L17.3848 9.94975C18.9475 11.5125 18.9475 14.0439 17.3848 15.6066C15.8221 17.1693 13.2906 17.1693 11.7279 15.6066L2.88909 6.76777C1.91328 5.79196 1.91328 4.20804 2.88909 3.23223C3.86489 2.25643 5.44881 2.25643 6.42462 3.23223L13.8492 10.6569C14.2382 11.0458 14.2382 11.6822 13.8492 12.0711C13.4603 12.46 12.8239 12.46 12.435 12.0711L5.71751 5.35355L4.65685 6.41421L11.3744 13.1317C12.3502 14.1075 13.9341 14.1075 14.9099 13.1317C15.8857 12.1559 15.8857 10.572 14.9099 9.59619L7.48528 2.17157C5.92258 0.608867 3.39113 0.608867 1.82843 2.17157C0.265721 3.73428 0.265721 6.26572 1.82843 7.82843L10.6673 16.6673C12.8169 18.8169 16.2958 18.8169 18.4454 16.6673C20.595 14.5177 20.595 11.0387 18.4454 8.88909L10.3137 0.757359L9.25305 1.81802Z" fill="#9DA3A7"/>
</svg>
