<svg width="34" height="34" viewBox="0 0 34 34" fill="none" xmlns="http://www.w3.org/2000/svg">
<path d="M7.08329 4.85712H32.5833V21.8571H7.08329V4.85712ZM19.8333 9.10712C20.9605 9.10712 22.0415 9.55488 22.8385 10.3519C23.6355 11.1489 24.0833 12.2299 24.0833 13.3571C24.0833 14.4843 23.6355 15.5653 22.8385 16.3623C22.0415 17.1594 20.9605 17.6071 19.8333 17.6071C18.7061 17.6071 17.6251 17.1594 16.8281 16.3623C16.0311 15.5653 15.5833 14.4843 15.5833 13.3571C15.5833 12.2299 16.0311 11.1489 16.8281 10.3519C17.6251 9.55488 18.7061 9.10712 19.8333 9.10712ZM12.75 7.69045C12.75 8.4419 12.4514 9.16257 11.9201 9.69392C11.3887 10.2253 10.6681 10.5238 9.91663 10.5238V16.1904C10.6681 16.1904 11.3887 16.489 11.9201 17.0203C12.4514 17.5517 12.75 18.2723 12.75 19.0238H26.9166C26.9166 18.2723 27.2151 17.5517 27.7465 17.0203C28.2778 16.489 28.9985 16.1904 29.75 16.1904V10.5238C28.9985 10.5238 28.2778 10.2253 27.7465 9.69392C27.2151 9.16257 26.9166 8.4419 26.9166 7.69045H12.75ZM1.41663 10.5238H4.24996V24.6904H26.9166V27.5238H1.41663V10.5238Z" fill="#319F43"/>
</svg>
