<svg width="26" height="26" viewBox="0 0 26 26" fill="none" xmlns="http://www.w3.org/2000/svg">
<path d="M23.8333 5.41665H2.16665C1.87933 5.41665 1.60378 5.53078 1.40061 5.73395C1.19745 5.93711 1.08331 6.21266 1.08331 6.49998V10.8333C1.0852 11.5038 1.29443 12.1574 1.68233 12.7043C2.07023 13.2512 2.6178 13.6648 3.24998 13.8883V23.8333C3.24998 24.1206 3.36412 24.3962 3.56728 24.5993C3.77045 24.8025 4.046 24.9166 4.33331 24.9166H21.6666C21.954 24.9166 22.2295 24.8025 22.4327 24.5993C22.6358 24.3962 22.75 24.1206 22.75 23.8333V13.8883C23.3822 13.6648 23.9297 13.2512 24.3176 12.7043C24.7055 12.1574 24.9148 11.5038 24.9166 10.8333V6.49998C24.9166 6.21266 24.8025 5.93711 24.5993 5.73395C24.3962 5.53078 24.1206 5.41665 23.8333 5.41665ZM16.25 7.58331H18.4166V10.8333C18.4166 11.1206 18.3025 11.3962 18.0993 11.5993C17.8962 11.8025 17.6206 11.9166 17.3333 11.9166C17.046 11.9166 16.7704 11.8025 16.5673 11.5993C16.3641 11.3962 16.25 11.1206 16.25 10.8333V7.58331ZM11.9166 7.58331H14.0833V10.8333C14.0833 11.1206 13.9692 11.3962 13.766 11.5993C13.5628 11.8025 13.2873 11.9166 13 11.9166C12.7127 11.9166 12.4371 11.8025 12.2339 11.5993C12.0308 11.3962 11.9166 11.1206 11.9166 10.8333V7.58331ZM7.58331 7.58331H9.74998V10.8333C9.74998 11.1206 9.63584 11.3962 9.43268 11.5993C9.22951 11.8025 8.95396 11.9166 8.66665 11.9166C8.37933 11.9166 8.10378 11.8025 7.90061 11.5993C7.69745 11.3962 7.58331 11.1206 7.58331 10.8333V7.58331ZM4.33331 11.9166C4.046 11.9166 3.77045 11.8025 3.56728 11.5993C3.36412 11.3962 3.24998 11.1206 3.24998 10.8333V7.58331H5.41665V10.8333C5.41665 11.1206 5.30251 11.3962 5.09935 11.5993C4.89618 11.8025 4.62063 11.9166 4.33331 11.9166ZM15.1666 22.75H10.8333V20.5833C10.8333 20.0087 11.0616 19.4576 11.4679 19.0512C11.8742 18.6449 12.4253 18.4166 13 18.4166C13.5746 18.4166 14.1257 18.6449 14.532 19.0512C14.9384 19.4576 15.1666 20.0087 15.1666 20.5833V22.75ZM20.5833 22.75H17.3333V20.5833C17.3333 19.434 16.8768 18.3318 16.0641 17.5192C15.2515 16.7065 14.1493 16.25 13 16.25C11.8507 16.25 10.7485 16.7065 9.93585 17.5192C9.12319 18.3318 8.66665 19.434 8.66665 20.5833V22.75H5.41665V13.8883C5.81485 13.7405 6.18217 13.5201 6.49998 13.2383C7.09584 13.7713 7.86722 14.0659 8.66665 14.0659C9.46607 14.0659 10.2375 13.7713 10.8333 13.2383C11.4292 13.7713 12.2006 14.0659 13 14.0659C13.7994 14.0659 14.5708 13.7713 15.1666 13.2383C15.7625 13.7713 16.5339 14.0659 17.3333 14.0659C18.1327 14.0659 18.9041 13.7713 19.5 13.2383C19.8178 13.5201 20.1851 13.7405 20.5833 13.8883V22.75ZM22.75 10.8333C22.75 11.1206 22.6358 11.3962 22.4327 11.5993C22.2295 11.8025 21.954 11.9166 21.6666 11.9166C21.3793 11.9166 21.1038 11.8025 20.9006 11.5993C20.6974 11.3962 20.5833 11.1206 20.5833 10.8333V7.58331H22.75V10.8333ZM4.65831 3.24998H21.6666C21.954 3.24998 22.2295 3.13584 22.4327 2.93268C22.6358 2.72951 22.75 2.45396 22.75 2.16665C22.75 1.87933 22.6358 1.60378 22.4327 1.40061C22.2295 1.19745 21.954 1.08331 21.6666 1.08331H4.65831C4.371 1.08331 4.09545 1.19745 3.89228 1.40061C3.68912 1.60378 3.57498 1.87933 3.57498 2.16665C3.57498 2.45396 3.68912 2.72951 3.89228 2.93268C4.09545 3.13584 4.371 3.24998 4.65831 3.24998Z" fill="#319F43"/>
</svg>
